<svg width="15" height="16" viewBox="0 0 15 16" fill="none" xmlns="http://www.w3.org/2000/svg">
<path d="M7.50248 15.3056H1.43351C1.1941 15.3056 1.00002 15.1115 1.00002 14.8721V3.16763H13.5715C13.8109 3.16763 14.0049 3.36171 14.0049 3.60112V9.23659" stroke="#7D7D7D" stroke-width="1.19754" stroke-linecap="round"/>
<path d="M1 3.16749V1.4335C1 1.19408 1.1935 1 1.43292 1C2.83696 1 5.02459 1 6.48268 1C6.8372 1 7.15531 1.21584 7.28697 1.545L7.93597 3.16749" stroke="#7D7D7D" stroke-width="1.19754"/>
<path d="M11.4012 11.9994V9.75462C11.4042 9.61829 11.353 9.48634 11.259 9.38762C11.2155 9.33938 11.1623 9.30095 11.1028 9.2749C11.0434 9.24885 10.979 9.23578 10.9141 9.23654C10.849 9.23567 10.7846 9.2487 10.725 9.27475C10.6654 9.3008 10.612 9.33928 10.5685 9.38762C10.4744 9.48634 10.4233 9.61829 10.4262 9.75462V12.0001H8.42322C8.35829 11.9993 8.29396 12.0124 8.23448 12.0384C8.17501 12.0645 8.12178 12.1029 8.07833 12.1512C7.98428 12.2499 7.93314 12.3818 7.9361 12.5182C7.93314 12.6545 7.98428 12.7864 8.07833 12.8852C8.12178 12.9334 8.17501 12.9718 8.23448 12.9979C8.29396 13.0239 8.35829 13.037 8.42322 13.0362H10.4262V15.166C10.4233 15.3023 10.4744 15.4343 10.5685 15.533C10.612 15.5813 10.6654 15.6198 10.725 15.6459C10.7846 15.6719 10.849 15.685 10.9141 15.6841C11.0492 15.6841 11.1642 15.6337 11.259 15.533C11.353 15.4343 11.4042 15.3023 11.4012 15.166V13.0362H13.5126C13.6482 13.0362 13.7631 12.9859 13.8575 12.8852C13.9515 12.7864 14.0026 12.6545 13.9997 12.5182C14.0026 12.3818 13.9515 12.2499 13.8575 12.1512C13.814 12.1029 13.7608 12.0645 13.7013 12.0384C13.6418 12.0124 13.5775 11.9986 13.5126 11.9994H11.4012Z" fill="#7D7D7D" stroke="#7D7D7D" stroke-width="0.276355"/>
</svg>
