<svg width="13" height="17" viewBox="0 0 13 17" fill="none" xmlns="http://www.w3.org/2000/svg">
<path d="M12.228 12.7449H9.98466V10.3599C9.9878 10.215 9.93346 10.0748 9.83354 9.96995C9.78737 9.9187 9.7308 9.87787 9.66761 9.85019C9.60443 9.82251 9.53607 9.80862 9.46709 9.80943C9.39798 9.80851 9.32947 9.82235 9.26614 9.85003C9.20281 9.87771 9.14612 9.9186 9.09986 9.96995C8.99993 10.0748 8.9456 10.215 8.94874 10.3599V12.7457H6.82053C6.75155 12.7449 6.68319 12.7588 6.62 12.7865C6.55682 12.8141 6.50025 12.855 6.45408 12.9062C6.35415 13.0111 6.29982 13.1513 6.30296 13.2962C6.29982 13.441 6.35415 13.5812 6.45408 13.6861C6.50025 13.7374 6.55682 13.7782 6.62 13.8059C6.68319 13.8335 6.75155 13.8474 6.82053 13.8466H8.94874V16.1095C8.9456 16.2543 8.99993 16.3945 9.09986 16.4994C9.14612 16.5508 9.20281 16.5917 9.26614 16.6194C9.32947 16.647 9.39798 16.6609 9.46709 16.66C9.61064 16.66 9.73279 16.6064 9.83354 16.4994C9.93346 16.3945 9.9878 16.2543 9.98466 16.1095V13.8466H12.228C12.372 13.8466 12.4942 13.7931 12.5944 13.6861C12.6943 13.5812 12.7487 13.441 12.7455 13.2962C12.7487 13.1513 12.6943 13.0111 12.5944 12.9062C12.5482 12.855 12.4917 12.8141 12.4285 12.7865C12.3653 12.7588 12.2969 12.7441 12.228 12.7449ZM12.632 4.93679L9.4804 1.37646L9.13588 1.0014H2.0027C1.86958 1.0014 1.72081 0.993573 1.59083 1.01471C1.43496 1.03706 1.2925 1.11525 1.18994 1.23474C0.969911 1.48373 1.00201 1.79615 1.00201 2.10231V15.5583C1.00201 15.8644 0.966779 16.1956 1.18994 16.4274C1.41309 16.6592 1.56265 16.6592 1.85001 16.6592H5.78461C5.92869 16.6592 6.0511 16.6057 6.15184 16.4987C6.25177 16.3938 6.3061 16.2536 6.30296 16.1087C6.3061 15.9639 6.25177 15.8237 6.15184 15.7188C6.10559 15.6674 6.0489 15.6265 5.98557 15.5989C5.92223 15.5712 5.85372 15.5573 5.78461 15.5583H2.05359L2.04889 2.06786H7.74526V4.8812C7.74526 5.18735 7.86428 5.46297 8.05141 5.66107C8.23855 5.85917 8.49773 5.9821 8.78509 5.9821H11.7096V9.25898C11.7065 9.40382 11.7608 9.54402 11.8607 9.64892C11.9069 9.70017 11.9635 9.741 12.0267 9.76868C12.0898 9.79636 12.1582 9.81025 12.2272 9.80943C12.3713 9.80943 12.4937 9.75593 12.5944 9.64892C12.6941 9.54389 12.7481 9.40371 12.7448 9.25898V5.28679L12.7455 5.06833L12.632 4.93679ZM8.8446 4.80211C8.81223 4.76035 8.79266 4.68727 8.78587 4.58287V2.19001L11.1811 4.8812H9.03409C8.94013 4.86867 8.87696 4.84178 8.8446 4.80055" fill="#7D7D7D"/>
<path d="M8.8446 4.80211C8.81223 4.76035 8.79266 4.68727 8.78587 4.58287V2.19001L11.1811 4.8812H9.03409C8.94013 4.86867 8.87696 4.84178 8.8446 4.80055M12.228 12.7449H9.98466V10.3599C9.9878 10.215 9.93346 10.0748 9.83354 9.96995C9.78737 9.9187 9.7308 9.87787 9.66762 9.85019C9.60443 9.82251 9.53607 9.80862 9.46709 9.80944C9.39798 9.80851 9.32947 9.82235 9.26614 9.85003C9.20281 9.87771 9.14612 9.9186 9.09986 9.96995C8.99993 10.0748 8.9456 10.215 8.94874 10.3599V12.7457H6.82053C6.75155 12.7449 6.68319 12.7588 6.62 12.7865C6.55682 12.8141 6.50025 12.855 6.45408 12.9062C6.35415 13.0111 6.29982 13.1513 6.30296 13.2962C6.29982 13.441 6.35415 13.5812 6.45408 13.6861C6.50025 13.7374 6.55682 13.7782 6.62 13.8059C6.68319 13.8335 6.75155 13.8474 6.82053 13.8466H8.94874V16.1095C8.9456 16.2543 8.99993 16.3945 9.09986 16.4994C9.14612 16.5508 9.20281 16.5917 9.26614 16.6194C9.32947 16.647 9.39798 16.6609 9.46709 16.66C9.61064 16.66 9.73279 16.6064 9.83354 16.4994C9.93346 16.3945 9.9878 16.2543 9.98466 16.1095V13.8466H12.228C12.372 13.8466 12.4942 13.7931 12.5944 13.6861C12.6943 13.5812 12.7487 13.441 12.7455 13.2962C12.7487 13.1513 12.6943 13.0111 12.5944 12.9062C12.5482 12.855 12.4917 12.8141 12.4285 12.7865C12.3653 12.7588 12.2969 12.7441 12.228 12.7449ZM12.632 4.93679L9.4804 1.37646L9.13588 1.0014H2.0027C1.86958 1.0014 1.72081 0.993573 1.59083 1.01471C1.43496 1.03706 1.2925 1.11525 1.18994 1.23474C0.969911 1.48373 1.00201 1.79615 1.00201 2.10231V15.5583C1.00201 15.8644 0.966779 16.1956 1.18994 16.4274C1.41309 16.6592 1.56265 16.6592 1.85001 16.6592H5.78461C5.92869 16.6592 6.0511 16.6057 6.15184 16.4987C6.25177 16.3938 6.3061 16.2536 6.30296 16.1087C6.3061 15.9639 6.25177 15.8237 6.15184 15.7188C6.10559 15.6674 6.0489 15.6265 5.98557 15.5989C5.92223 15.5712 5.85372 15.5573 5.78461 15.5583H2.05359L2.04889 2.06786H7.74526V4.8812C7.74526 5.18735 7.86428 5.46297 8.05142 5.66107C8.23855 5.85917 8.49773 5.9821 8.78509 5.9821H11.7096V9.25898C11.7065 9.40382 11.7608 9.54402 11.8607 9.64892C11.9069 9.70017 11.9635 9.741 12.0267 9.76868C12.0898 9.79636 12.1582 9.81025 12.2272 9.80944C12.3713 9.80944 12.4937 9.75593 12.5944 9.64892C12.6941 9.54389 12.7481 9.40371 12.7448 9.25898V5.28679L12.7455 5.06833L12.632 4.93679Z" stroke="#7D7D7D" stroke-width="0.293627"/>
</svg>
