<svg width="4" height="15" viewBox="0 0 4 15" fill="none" xmlns="http://www.w3.org/2000/svg">
<path d="M-4.57764e-05 7.5C-4.57764e-05 8.41667 0.749954 9.16667 1.66662 9.16667C2.58329 9.16667 3.33329 8.41667 3.33329 7.5C3.33329 6.58333 2.58329 5.83333 1.66662 5.83333C0.749954 5.83333 -4.57764e-05 6.58333 -4.57764e-05 7.5Z" fill="#145DD1"/>
<path d="M-4.57764e-05 1.66667C-4.57764e-05 2.58333 0.749954 3.33333 1.66662 3.33333C2.58329 3.33333 3.33329 2.58333 3.33329 1.66667C3.33329 0.749999 2.58329 -1.19209e-06 1.66662 -1.19209e-06C0.749954 -1.19209e-06 -4.57764e-05 0.749999 -4.57764e-05 1.66667Z" fill="#145DD1"/>
<path d="M0 13.3333C0 14.25 0.75 15 1.66667 15C2.58333 15 3.33333 14.25 3.33333 13.3333C3.33333 12.4167 2.58333 11.6667 1.66667 11.6667C0.75 11.6667 0 12.4167 0 13.3333Z" fill="#145DD1"/>
</svg>
