<svg width="20" height="20" viewBox="0 0 20 20" fill="none" xmlns="http://www.w3.org/2000/svg">
<path d="M14.75 12.9685C14.75 14.3407 14.2684 15.5084 13.3052 16.4716C12.342 17.4348 11.1743 17.9164 9.80208 17.9164C8.42986 17.9164 7.26215 17.4348 6.29896 16.4716C5.33576 15.5084 4.85417 14.3407 4.85417 12.9685V5.64558C4.85417 4.65599 5.20065 3.81498 5.89362 3.12254C6.5866 2.43009 7.42761 2.0836 8.41667 2.08308C9.40572 2.08255 10.247 2.42904 10.9405 3.12254C11.634 3.81604 11.9802 4.65705 11.9792 5.64558V12.5727C11.9792 13.1796 11.7681 13.6942 11.3458 14.1164C10.9236 14.5386 10.409 14.7497 9.80208 14.7497C9.19514 14.7497 8.68055 14.5386 8.25833 14.1164C7.83611 13.6942 7.625 13.1796 7.625 12.5727V5.24974H9.20833V12.5727C9.20833 12.7442 9.26454 12.8862 9.37696 12.9986C9.48937 13.111 9.63108 13.1669 9.80208 13.1664C9.97308 13.1659 10.1151 13.1097 10.228 12.9978C10.3409 12.8859 10.3969 12.7442 10.3958 12.5727V5.64558C10.3826 5.09141 10.1882 4.62301 9.81237 4.24037C9.4366 3.85773 8.97136 3.66641 8.41667 3.66641C7.86197 3.66641 7.39357 3.85773 7.01146 4.24037C6.62935 4.62301 6.43803 5.09141 6.4375 5.64558V12.9685C6.4243 13.9053 6.74757 14.7004 7.40729 15.3538C8.06701 16.0072 8.86528 16.3336 9.80208 16.3331C10.7257 16.3331 11.5108 16.0066 12.1573 15.3538C12.8038 14.7009 13.1403 13.9058 13.1667 12.9685V5.24974H14.75V12.9685Z" fill="white"/>
</svg>
