<svg width="19" height="19" viewBox="0 0 19 19" fill="none" xmlns="http://www.w3.org/2000/svg">
<path d="M13.4583 17.4168C12.7986 17.4168 12.2378 17.1859 11.776 16.7241C11.3142 16.2623 11.0833 15.7015 11.0833 15.0418C11.0833 14.9626 11.1031 14.7779 11.1427 14.4876L5.58123 11.2418C5.37012 11.4397 5.12602 11.5949 4.84894 11.7073C4.57186 11.8197 4.27498 11.8757 3.95831 11.8751C3.29859 11.8751 2.73783 11.6442 2.27602 11.1824C1.81422 10.7206 1.58331 10.1599 1.58331 9.50014C1.58331 8.84042 1.81422 8.27965 2.27602 7.81785C2.73783 7.35604 3.29859 7.12514 3.95831 7.12514C4.27498 7.12514 4.57186 7.18135 4.84894 7.29377C5.12602 7.40618 5.37012 7.56108 5.58123 7.75847L11.1427 4.51264C11.1163 4.42028 11.0999 4.33135 11.0936 4.24585C11.0873 4.16035 11.0838 4.06456 11.0833 3.95847C11.0833 3.29875 11.3142 2.73799 11.776 2.27618C12.2378 1.81438 12.7986 1.58347 13.4583 1.58347C14.118 1.58347 14.6788 1.81438 15.1406 2.27618C15.6024 2.73799 15.8333 3.29875 15.8333 3.95847C15.8333 4.6182 15.6024 5.17896 15.1406 5.64077C14.6788 6.10257 14.118 6.33347 13.4583 6.33347C13.1416 6.33347 12.8448 6.27727 12.5677 6.16485C12.2906 6.05243 12.0465 5.89753 11.8354 5.70014L6.27394 8.94597C6.30033 9.03833 6.31695 9.12753 6.32381 9.21356C6.33068 9.29958 6.33384 9.39511 6.33331 9.50014C6.33279 9.60517 6.32962 9.70096 6.32381 9.78751C6.31801 9.87407 6.30138 9.963 6.27394 10.0543L11.8354 13.3001C12.0465 13.1022 12.2906 12.9473 12.5677 12.8354C12.8448 12.7235 13.1416 12.6673 13.4583 12.6668C14.118 12.6668 14.6788 12.8977 15.1406 13.3595C15.6024 13.8213 15.8333 14.3821 15.8333 15.0418C15.8333 15.7015 15.6024 16.2623 15.1406 16.7241C14.6788 17.1859 14.118 17.4168 13.4583 17.4168Z" fill="#145DD1"/>
</svg>
